<svg width="17" height="20" viewBox="0 0 17 20" fill="none" xmlns="http://www.w3.org/2000/svg">
<path opacity="0.4" d="M8.95047 0.237078C9.02174 0.162049 9.10696 0.102416 9.20109 0.0616971C9.29522 0.0209784 9.39636 0 9.49853 0C9.6007 0 9.70184 0.0209784 9.79597 0.0616971C9.8901 0.102416 9.97532 0.162049 10.0466 0.237078C10.1927 0.390865 10.2745 0.597052 10.2745 0.811722C10.2745 1.02639 10.1927 1.23258 10.0466 1.38637L1.85425 9.99828L10.0466 18.6119C10.1203 18.6893 10.1785 18.7808 10.2177 18.8812C10.257 18.9817 10.2765 19.089 10.2753 19.1972C10.274 19.3053 10.252 19.4122 10.2104 19.5116C10.1689 19.6111 10.1087 19.7011 10.0331 19.7767C9.96122 19.8488 9.87613 19.9056 9.78277 19.9439C9.6894 19.9822 9.58958 20.0012 9.48902 19.9999C9.38846 19.9987 9.28913 19.9771 9.19672 19.9364C9.10431 19.8957 9.02063 19.8368 8.95047 19.7629L0.238644 10.5996C0.0856341 10.4387 0 10.223 0 9.99828C0 9.77361 0.0856341 9.55782 0.238644 9.39693L8.95047 0.237078ZM15.6751 0.237078C15.7464 0.162049 15.8316 0.102416 15.9258 0.0616971C16.0199 0.0209784 16.121 0 16.2232 0C16.3254 0 16.4265 0.0209784 16.5206 0.0616971C16.6148 0.102416 16.7 0.162049 16.7713 0.237078C16.9174 0.390865 16.9992 0.597052 16.9992 0.811722C16.9992 1.02639 16.9174 1.23258 16.7713 1.38637L8.57893 9.99828L16.7713 18.6119C16.845 18.6893 16.9032 18.7808 16.9424 18.8812C16.9816 18.9817 17.0012 19.089 16.9999 19.1972C16.9987 19.3053 16.9767 19.4122 16.9351 19.5116C16.8936 19.6111 16.8333 19.7011 16.7578 19.7767C16.6859 19.8488 16.6008 19.9056 16.5074 19.9439C16.4141 19.9822 16.3143 20.0012 16.2137 19.9999C16.1131 19.9987 16.0138 19.9771 15.9214 19.9364C15.829 19.8957 15.7453 19.8368 15.6751 19.7629L6.96333 10.5996C6.81032 10.4387 6.72468 10.223 6.72468 9.99828C6.72468 9.77361 6.81032 9.55782 6.96333 9.39693L15.6751 0.237078Z" fill="#13131C"/>
</svg>
