<svg width="12" height="20" viewBox="0 0 12 20" fill="none" xmlns="http://www.w3.org/2000/svg">
<path opacity="0.4" d="M11.7166 9.37695L1.53338 0.23768C1.36346 0.0851102 1.13772 -1.42442e-06 0.902978 -1.4552e-06C0.668231 -1.48598e-06 0.442492 0.0851101 0.27258 0.23768L0.261616 0.248007C0.178961 0.32197 0.113144 0.410999 0.068169 0.509677C0.0231937 0.608355 4.8137e-07 0.71462 4.67288e-07 0.822008C4.53206e-07 0.929395 0.0231937 1.03566 0.0681689 1.13434C0.113144 1.23302 0.178961 1.32205 0.261616 1.39601L9.85098 10.0017L0.261614 18.604C0.178958 18.678 0.113142 18.767 0.0681666 18.8657C0.0231913 18.9643 -1.92573e-06 19.0706 -1.93981e-06 19.178C-1.95389e-06 19.2854 0.0231913 19.3916 0.0681665 19.4903C0.113142 19.589 0.178958 19.678 0.261614 19.752L0.272578 19.7623C0.44249 19.9149 0.668228 20 0.902975 20C1.13772 20 1.36346 19.9149 1.53337 19.7623L11.7166 10.6231C11.8062 10.5427 11.8774 10.446 11.9262 10.3389C11.9749 10.2318 12 10.1165 12 10C12 9.88348 11.9749 9.76818 11.9262 9.66108C11.8774 9.55398 11.8062 9.45732 11.7166 9.37695Z" fill="#13131C"/>
</svg>
