<svg width="17" height="20" viewBox="0 0 17 20" fill="none" xmlns="http://www.w3.org/2000/svg">
<path opacity="0.4" d="M8.04953 19.7629C7.97826 19.8379 7.89304 19.8976 7.79891 19.9383C7.70478 19.979 7.60364 20 7.50147 20C7.3993 20 7.29816 19.979 7.20403 19.9383C7.1099 19.8976 7.02468 19.8379 6.95341 19.7629C6.80728 19.6091 6.7255 19.4029 6.7255 19.1883C6.7255 18.9736 6.80728 18.7674 6.95341 18.6136L15.1458 10.0017L6.95341 1.38808C6.87966 1.31069 6.82151 1.21918 6.78228 1.11876C6.74304 1.01835 6.72349 0.910989 6.72474 0.802825C6.72599 0.694661 6.74801 0.587808 6.78956 0.488368C6.8311 0.388928 6.89135 0.298854 6.96686 0.223281C7.03879 0.15124 7.12387 0.0944434 7.21724 0.05614C7.3106 0.0178367 7.41042 -0.00121963 7.51098 6.02056e-05C7.61155 0.00134005 7.71088 0.0229331 7.80329 0.0636016C7.8957 0.10427 7.97937 0.163215 8.04953 0.237065L16.7614 9.40037C16.9144 9.56126 17 9.77704 17 10.0017C17 10.2264 16.9144 10.4422 16.7614 10.6031L8.04953 19.7629ZM1.32485 19.7629C1.25358 19.8379 1.16836 19.8976 1.07423 19.9383C0.980097 19.979 0.878962 20 0.776791 20C0.67462 20 0.573483 19.979 0.479351 19.9383C0.38522 19.8976 0.300003 19.8379 0.228727 19.7629C0.082594 19.6091 0.000820212 19.4029 0.000820231 19.1883C0.00082025 18.9736 0.082594 18.7674 0.228727 18.6136L8.42107 10.0017L0.228729 1.38808C0.154983 1.31069 0.096832 1.21918 0.0575959 1.11876C0.0183599 1.01835 -0.00119233 0.910988 5.69914e-05 0.802824C0.00130631 0.694661 0.0233305 0.587807 0.0648744 0.488368C0.106418 0.388928 0.166666 0.298853 0.242178 0.22328C0.314106 0.15124 0.399189 0.0944428 0.492555 0.0561395C0.585922 0.0178361 0.685743 -0.00122022 0.786304 5.96177e-05C0.886865 0.00133946 0.986194 0.0229326 1.0786 0.0636011C1.17101 0.10427 1.25469 0.163214 1.32485 0.237065L10.0367 9.40037C10.1897 9.56125 10.2753 9.77704 10.2753 10.0017C10.2753 10.2264 10.1897 10.4422 10.0367 10.6031L1.32485 19.7629Z" fill="#13131C"/>
</svg>
