<svg width="32" height="32" viewBox="0 0 32 32" fill="none" xmlns="http://www.w3.org/2000/svg">
<path d="M16 5.4375C12.1333 5.4375 9.45455 8.18375 9.45455 11.5312C9.45455 13.1302 10.1484 14.1719 11.0647 15.2752L11.4149 15.6864C11.7798 16.1154 12.184 16.5899 12.5162 17.0644C12.9809 17.7322 13.3949 18.5204 13.5324 19.4856C13.5651 19.7992 13.4743 20.1132 13.2788 20.3616C13.0834 20.61 12.7987 20.7736 12.4844 20.818C12.1701 20.8624 11.8507 20.7841 11.5933 20.5996C11.3359 20.4151 11.1605 20.1387 11.104 19.8285C11.0385 19.3703 10.8373 18.9396 10.4985 18.4521C10.2222 18.0689 9.92616 17.7001 9.61164 17.3471C9.47418 17.1846 9.32855 17.014 9.17309 16.8271C8.14709 15.5938 7 13.9948 7 11.5312C7 6.75375 10.8667 3 16 3C21.1333 3 25 6.75375 25 11.5312C25 13.9948 23.8529 15.5938 22.8269 16.8271C22.6715 17.014 22.5258 17.1846 22.3884 17.3455C22.0496 17.7436 21.7616 18.0816 21.5031 18.4521C21.1627 18.9396 20.9631 19.3703 20.8976 19.8285C20.8373 20.1356 20.6605 20.408 20.4037 20.5894C20.1469 20.7707 19.8297 20.8472 19.5178 20.8029C19.2058 20.7587 18.9229 20.5972 18.7275 20.3517C18.532 20.1063 18.439 19.7956 18.4676 19.484C18.6051 18.5204 19.0191 17.7322 19.4838 17.0644C19.816 16.5899 20.2202 16.1154 20.5851 15.6864C20.7078 15.5434 20.8256 15.4052 20.9336 15.2752C21.8516 14.1719 22.5455 13.1302 22.5455 11.5312C22.5455 8.18375 19.8667 5.4375 16 5.4375ZM12.3182 22.5H19.6818C20.0073 22.5 20.3195 22.6284 20.5496 22.857C20.7798 23.0855 20.9091 23.3955 20.9091 23.7188C20.9091 24.042 20.7798 24.352 20.5496 24.5805C20.3195 24.8091 20.0073 24.9375 19.6818 24.9375H12.3182C11.9927 24.9375 11.6805 24.8091 11.4504 24.5805C11.2202 24.352 11.0909 24.042 11.0909 23.7188C11.0909 23.3955 11.2202 23.0855 11.4504 22.857C11.6805 22.6284 11.9927 22.5 12.3182 22.5ZM12.7273 27.7812C12.7273 27.458 12.8566 27.148 13.0867 26.9195C13.3169 26.6909 13.6291 26.5625 13.9545 26.5625H18.0455C18.3709 26.5625 18.6831 26.6909 18.9133 26.9195C19.1434 27.148 19.2727 27.458 19.2727 27.7812C19.2727 28.1045 19.1434 28.4145 18.9133 28.643C18.6831 28.8716 18.3709 29 18.0455 29H13.9545C13.6291 29 13.3169 28.8716 13.0867 28.643C12.8566 28.4145 12.7273 28.1045 12.7273 27.7812Z" fill="#A9ABAD"/>
</svg>
