<svg width="32" height="32" viewBox="0 0 32 32" fill="none" xmlns="http://www.w3.org/2000/svg">
<path d="M17.5554 12.5541C17.5554 12.3796 17.6172 12.2001 17.7407 12.0156C17.8634 11.8318 18.0005 11.7108 18.152 11.6527C18.7013 11.4588 19.2505 11.3134 19.7998 11.2165C20.349 11.1195 20.9267 11.0711 21.5327 11.0711C21.9115 11.0711 22.2857 11.0951 22.6554 11.1432C23.0244 11.1921 23.3888 11.2553 23.7486 11.3328C23.9191 11.3716 24.0657 11.4685 24.1884 11.6236C24.3119 11.7787 24.3736 11.9532 24.3736 12.147C24.3736 12.4766 24.2695 12.7189 24.0611 12.874C23.8528 13.0291 23.5876 13.0679 23.2657 12.9903C23.0005 12.9321 22.7214 12.8883 22.4282 12.8589C22.1342 12.8302 21.8357 12.8158 21.5327 12.8158C21.0403 12.8158 20.5573 12.8643 20.0839 12.9612C19.6104 13.0582 19.1558 13.1842 18.7202 13.3393C18.3793 13.475 18.1001 13.4653 17.8827 13.3102C17.6645 13.1551 17.5554 12.9031 17.5554 12.5541ZM17.5554 18.9515C17.5554 18.7771 17.6172 18.5975 17.7407 18.413C17.8634 18.2292 18.0005 18.1082 18.152 18.0501C18.7013 17.8562 19.2505 17.7108 19.7998 17.6139C20.349 17.517 20.9267 17.4685 21.5327 17.4685C21.9115 17.4685 22.2857 17.4925 22.6554 17.5406C23.0244 17.5895 23.3888 17.6527 23.7486 17.7302C23.9191 17.769 24.0657 17.8659 24.1884 18.021C24.3119 18.1761 24.3736 18.3506 24.3736 18.5444C24.3736 18.874 24.2695 19.1163 24.0611 19.2714C23.8528 19.4265 23.5876 19.4653 23.2657 19.3877C23.0005 19.3296 22.7214 19.2858 22.4282 19.2563C22.1342 19.2276 21.8357 19.2132 21.5327 19.2132C21.0403 19.2132 20.5573 19.2571 20.0839 19.3447C19.6104 19.4315 19.1558 19.5525 18.7202 19.7076C18.3793 19.8433 18.1001 19.8383 17.8827 19.6925C17.6645 19.5475 17.5554 19.3005 17.5554 18.9515ZM17.5554 15.7528C17.5554 15.5784 17.6172 15.3988 17.7407 15.2143C17.8634 15.0305 18.0005 14.9095 18.152 14.8514C18.7013 14.6575 19.2505 14.5121 19.7998 14.4152C20.349 14.3183 20.9267 14.2698 21.5327 14.2698C21.9115 14.2698 22.2857 14.2938 22.6554 14.3419C23.0244 14.3908 23.3888 14.454 23.7486 14.5315C23.9191 14.5703 24.0657 14.6672 24.1884 14.8223C24.3119 14.9774 24.3736 15.1519 24.3736 15.3457C24.3736 15.6753 24.2695 15.9176 24.0611 16.0727C23.8528 16.2278 23.5876 16.2666 23.2657 16.189C23.0005 16.1309 22.7214 16.087 22.4282 16.0576C22.1342 16.0289 21.8357 16.0145 21.5327 16.0145C21.0403 16.0145 20.5573 16.063 20.0839 16.1599C19.6104 16.2569 19.1558 16.3829 18.7202 16.538C18.3793 16.6737 18.1001 16.664 17.8827 16.5089C17.6645 16.3538 17.5554 16.1018 17.5554 15.7528ZM9.03271 20.958C9.92287 20.958 10.7895 21.0596 11.6327 21.2627C12.4751 21.4667 13.313 21.7722 14.1464 22.1793V10.7221C13.3698 10.2569 12.546 9.90792 11.6748 9.67528C10.8035 9.44265 9.92287 9.32633 9.03271 9.32633C8.3509 9.32633 7.674 9.39418 7.00203 9.52989C6.32931 9.66559 5.68044 9.86914 5.05544 10.1405V21.6559C5.71832 21.4233 6.37665 21.2488 7.03044 21.1325C7.68347 21.0162 8.3509 20.958 9.03271 20.958ZM16.4191 22.1793C17.2524 21.7722 18.0907 21.4667 18.9339 21.2627C19.7763 21.0596 20.6426 20.958 21.5327 20.958C22.2145 20.958 22.8823 21.0162 23.5361 21.1325C24.1892 21.2488 24.8471 21.4233 25.51 21.6559V10.1405C24.885 9.86914 24.2365 9.66559 23.5645 9.52989C22.8918 9.39418 22.2145 9.32633 21.5327 9.32633C20.6426 9.32633 19.7619 9.44265 18.8907 9.67528C18.0195 9.90792 17.1956 10.2569 16.4191 10.7221V22.1793ZM15.2827 25C15.0176 25 14.7668 24.9663 14.5304 24.8988C14.2933 24.8306 14.0706 24.7383 13.8623 24.622C13.1236 24.1761 12.3471 23.8419 11.5327 23.6193C10.7183 23.396 9.88499 23.2843 9.03271 23.2843C8.23726 23.2843 7.4562 23.391 6.68953 23.6042C5.92211 23.8174 5.18802 24.1179 4.48726 24.5057C4.08953 24.7189 3.7062 24.7092 3.33726 24.4766C2.96756 24.2439 2.78271 23.9047 2.78271 23.4588V9.44265C2.78271 9.2294 2.83499 9.02585 2.93953 8.83199C3.04332 8.63813 3.19938 8.49273 3.40771 8.3958C4.27893 7.93053 5.18802 7.58158 6.13499 7.34895C7.08196 7.11632 8.04787 7 9.03271 7C10.1312 7 11.2062 7.1454 12.2577 7.43619C13.3085 7.72698 14.3168 8.16317 15.2827 8.74475C16.2486 8.16317 17.2573 7.72698 18.3089 7.43619C19.3596 7.1454 20.4342 7 21.5327 7C22.5176 7 23.4835 7.11632 24.4304 7.34895C25.3774 7.58158 26.2865 7.93053 27.1577 8.3958C27.366 8.49273 27.5225 8.63813 27.627 8.83199C27.7308 9.02585 27.7827 9.2294 27.7827 9.44265V23.4588C27.7827 23.9047 27.5982 24.2439 27.2293 24.4766C26.8596 24.7092 26.4759 24.7189 26.0782 24.5057C25.3774 24.1179 24.6433 23.8174 23.8759 23.6042C23.1092 23.391 22.3282 23.2843 21.5327 23.2843C20.6804 23.2843 19.8471 23.396 19.0327 23.6193C18.2183 23.8419 17.4418 24.1761 16.7032 24.622C16.4948 24.7383 16.2725 24.8306 16.0361 24.8988C15.799 24.9663 15.5479 25 15.2827 25Z" fill="#A9ABAD"/>
</svg>
