<svg width="32" height="32" viewBox="0 0 32 32" fill="none" xmlns="http://www.w3.org/2000/svg">
<path d="M12.5778 22.65C12.2667 22.3389 12.1173 21.963 12.1298 21.5222C12.1433 21.0815 12.3056 20.7056 12.6167 20.3944L15.4556 17.5556H3.55556C3.11481 17.5556 2.74563 17.4062 2.448 17.1076C2.14933 16.8099 2 16.4407 2 16C2 15.5593 2.14933 15.1896 2.448 14.8909C2.74563 14.5933 3.11481 14.4444 3.55556 14.4444H15.4556L12.5778 11.5667C12.2667 11.2556 12.1111 10.8864 12.1111 10.4591C12.1111 10.0308 12.2667 9.66111 12.5778 9.35C12.8889 9.03889 13.2586 8.88333 13.6869 8.88333C14.1141 8.88333 14.4833 9.03889 14.7944 9.35L20.3556 14.9111C20.5111 15.0667 20.6216 15.2352 20.6869 15.4167C20.7512 15.5981 20.7833 15.7926 20.7833 16C20.7833 16.2074 20.7512 16.4019 20.6869 16.5833C20.6216 16.7648 20.5111 16.9333 20.3556 17.0889L14.7556 22.6889C14.4704 22.9741 14.1141 23.1167 13.6869 23.1167C13.2586 23.1167 12.8889 22.9611 12.5778 22.65ZM5.11111 30C4.25556 30 3.52289 29.6956 2.91311 29.0869C2.30437 28.4771 2 27.7444 2 26.8889V22.2222C2 21.7815 2.14933 21.4118 2.448 21.1131C2.74563 20.8155 3.11481 20.6667 3.55556 20.6667C3.9963 20.6667 4.366 20.8155 4.66467 21.1131C4.9623 21.4118 5.11111 21.7815 5.11111 22.2222V26.8889H26.8889V5.11111H5.11111V9.77778C5.11111 10.2185 4.9623 10.5877 4.66467 10.8853C4.366 11.184 3.9963 11.3333 3.55556 11.3333C3.11481 11.3333 2.74563 11.184 2.448 10.8853C2.14933 10.5877 2 10.2185 2 9.77778V5.11111C2 4.25556 2.30437 3.52289 2.91311 2.91311C3.52289 2.30437 4.25556 2 5.11111 2H26.8889C27.7444 2 28.4771 2.30437 29.0869 2.91311C29.6956 3.52289 30 4.25556 30 5.11111V26.8889C30 27.7444 29.6956 28.4771 29.0869 29.0869C28.4771 29.6956 27.7444 30 26.8889 30H5.11111Z" fill="#A9ABAD"/>
</svg>
