<svg width="32" height="32" viewBox="0 0 32 32" fill="none" xmlns="http://www.w3.org/2000/svg">
<path fill-rule="evenodd" clip-rule="evenodd" d="M14.4035 4.53985C14.8599 4.18997 15.4216 4 15.9999 4C16.5781 4 17.1398 4.18997 17.5962 4.53985L28.4952 12.8929C29.4741 13.6449 28.9333 15.1886 27.6957 15.1886H26.3997V25.4377C26.3997 26.1173 26.1257 26.769 25.6382 27.2495C25.1506 27.73 24.4893 28 23.7997 28H8.20003C7.51048 28 6.84917 27.73 6.36159 27.2495C5.874 26.769 5.60008 26.1173 5.60008 25.4377V15.1886H4.30401C3.06513 15.1886 2.52694 13.6436 3.50452 12.8941L14.4035 4.54114V4.53985ZM7.71254 12.9146C8.01023 13.1516 8.20003 13.5142 8.20003 13.9203V25.4377H23.7997V13.9203C23.7997 13.5142 23.9895 13.1516 24.2872 12.9146L15.9999 6.56277L7.71254 12.9146Z" fill="white"/>
</svg>
