<svg width="32" height="32" viewBox="0 0 32 32" fill="none" xmlns="http://www.w3.org/2000/svg">
<path d="M27.114 7.72342L16.1569 4.04324C15.971 3.98559 15.7721 3.98559 15.5862 4.04324L4.64052 7.72342H4.6177L4.50356 7.78092H4.49215L4.37801 7.84992C4.37801 7.86142 4.3666 7.86142 4.35518 7.87292L4.26387 7.95343L4.18398 8.04543C4.18398 8.05693 4.17257 8.05693 4.17257 8.06843L4.10408 8.17194C4.10408 8.18344 4.10408 8.18344 4.09267 8.19494L4.04702 8.29844L4.01277 8.42495V8.45945C4.00152 8.50452 3.99766 8.55114 4.00136 8.59746V17.7979C4.00136 18.0419 4.09756 18.2759 4.2688 18.4485C4.44004 18.621 4.67228 18.7179 4.91445 18.7179C5.15662 18.7179 5.38887 18.621 5.5601 18.4485C5.73134 18.2759 5.82754 18.0419 5.82754 17.7979V9.87402L9.66252 11.1621C8.94205 12.3241 8.56221 13.6676 8.56681 15.0378C8.56723 16.2839 8.88162 17.5094 9.4805 18.5997C10.0794 19.6899 10.9432 20.6091 11.9909 21.2711C9.81364 22.101 7.95488 23.6074 6.68356 25.5723C6.55398 25.7788 6.51008 26.0283 6.56132 26.267C6.61255 26.5058 6.75483 26.7147 6.95749 26.8488C7.05694 26.9152 7.16849 26.9611 7.28565 26.9837C7.40282 27.0064 7.52328 27.0054 7.64006 26.9808C7.75684 26.9562 7.86761 26.9085 7.96596 26.8404C8.0643 26.7724 8.14827 26.6853 8.21299 26.5843C9.04177 25.298 10.1765 24.2408 11.5141 23.5089C12.8516 22.7771 14.3495 22.3937 15.8715 22.3937C17.3936 22.3937 18.8915 22.7771 20.229 23.5089C21.5666 24.2408 22.7013 25.298 23.5301 26.5843C23.6134 26.7119 23.727 26.8165 23.8605 26.8888C23.994 26.961 24.1432 26.9987 24.2948 26.9983C24.4697 27.0002 24.641 26.948 24.7856 26.8488C24.9882 26.7147 25.1305 26.5058 25.1818 26.267C25.233 26.0283 25.1891 25.7788 25.0595 25.5723C23.7882 23.6074 21.9294 22.101 19.7522 21.2711C20.7999 20.6091 21.6637 19.6899 22.2626 18.5997C22.8615 17.5094 23.1758 16.2839 23.1763 15.0378C23.1809 13.6676 22.801 12.3241 22.0805 11.1621L27.114 9.4715C27.2966 9.411 27.4557 9.29393 27.5685 9.13698C27.6812 8.98003 27.7419 8.79122 27.7419 8.59746C27.7419 8.4037 27.6812 8.21488 27.5685 8.05794C27.4557 7.90099 27.2966 7.78392 27.114 7.72342ZM21.3501 15.0378C21.3501 16.5018 20.7729 17.9059 19.7454 18.9412C18.718 19.9764 17.3245 20.558 15.8715 20.558C14.4185 20.558 13.025 19.9764 11.9976 18.9412C10.9702 17.9059 10.393 16.5018 10.393 15.0378C10.3952 13.8598 10.7667 12.7127 11.4545 11.7601L15.5862 13.1517C15.7715 13.2131 15.9715 13.2131 16.1569 13.1517L20.2886 11.7601C20.9764 12.7127 21.3479 13.8598 21.3501 15.0378ZM20.2886 9.82802H20.2772L15.8715 11.3116L11.4659 9.82802H11.4545L7.8021 8.59746L15.8715 5.88333L23.941 8.59746L20.2886 9.82802Z" fill="#A9ABAD"/>
</svg>
