<svg width="24" height="26" viewBox="0 0 24 26" fill="none" xmlns="http://www.w3.org/2000/svg">
<path d="M12 11.7126C10.5413 11.7126 9.14236 11.1507 8.11091 10.1505C7.07946 9.15032 6.5 7.79377 6.5 6.37928C6.5 4.96479 7.07946 3.60824 8.11091 2.60805C9.14236 1.60785 10.5413 1.04595 12 1.04595C13.4587 1.04595 14.8576 1.60785 15.8891 2.60805C16.9205 3.60824 17.5 4.96479 17.5 6.37928C17.5 7.79377 16.9205 9.15032 15.8891 10.1505C14.8576 11.1507 13.4587 11.7126 12 11.7126Z" stroke="white" stroke-linecap="round"/>
<path d="M1 25.046V23.7126C1 21.5909 1.86919 19.5561 3.41637 18.0558C4.96354 16.5555 7.06196 15.7126 9.25 15.7126H14.75C16.938 15.7126 19.0365 16.5555 20.5836 18.0558C22.1308 19.5561 23 21.5909 23 23.7126V25.046" stroke="white" stroke-linecap="round"/>
</svg>
