<svg width="163" height="251" viewBox="0 0 163 251" fill="none" xmlns="http://www.w3.org/2000/svg">
<g clip-path="url(#clip0)">
<path d="M91.3289 115.921L91.3299 115.942L91.3317 115.962L91.4466 117.261L91.449 117.288L91.4529 117.315C91.6286 118.537 91.7438 119.764 91.7982 120.994H90.7261C89.424 120.926 88.1181 120.926 86.816 120.996L86.7717 120.998L86.7278 121.004C85.182 121.225 83.6658 121.579 82.2029 122.063C81.4508 122.286 80.7442 122.484 80.0101 122.636C79.205 122.789 77.3291 123.429 74.9966 124.265C73.435 124.824 71.6148 125.492 69.6789 126.201C69.1608 126.391 68.6344 126.584 68.1025 126.779C68.1994 126.252 68.3159 125.728 68.452 125.206C68.6228 124.578 68.747 123.94 68.8235 123.297L68.8329 123.219L68.8297 123.139C68.7771 121.825 68.5505 120.521 68.1552 119.252C67.8904 118.358 67.7094 117.448 67.6132 116.532C71.0357 116.009 74.4184 115.311 77.7429 114.442C78.3138 114.309 78.9098 114.161 79.4646 114.024C79.8463 113.929 80.2085 113.839 80.5298 113.762C80.9408 113.664 81.2993 113.583 81.5929 113.527C81.9035 113.468 82.0814 113.449 82.1573 113.449H82.1615H82.1656H82.1698H82.174H82.1781H82.1823H82.1865H82.1907H82.1949H82.1991H82.2033H82.2075H82.2118H82.216H82.2202H82.2245H82.2287H82.233H82.2372H82.2415H82.2458H82.25H82.2543H82.2586H82.2629H82.2672H82.2715H82.2758H82.2801H82.2844H82.2887H82.2931H82.2974H82.3017H82.3061H82.3104H82.3148H82.3192H82.3235H82.3279H82.3323H82.3367H82.341H82.3454H82.3498H82.3542H82.3587H82.3631H82.3675H82.3719H82.3764H82.3808H82.3852H82.3897H82.3941H82.3986H82.4031H82.4075H82.412H82.4165H82.421H82.4255H82.43H82.4345H82.439H82.4435H82.448H82.4525H82.4571H82.4616H82.4661H82.4707H82.4752H82.4798H82.4843H82.4889H82.4935H82.4981H82.5026H82.5072H82.5118H82.5164H82.521H82.5256H82.5302H82.5349H82.5395H82.5441H82.5487H82.5534H82.558H82.5627H82.5673H82.572H82.5766H82.5813H82.586H82.5907H82.5954H82.6H82.6047H82.6094H82.6141H82.6189H82.6236H82.6283H82.633H82.6377H82.6425H82.6472H82.652H82.6567H82.6615H82.6662H82.671H82.6758H82.6805H82.6853H82.6901H82.6949H82.6997H82.7045H82.7093H82.7141H82.7189H82.7237H82.7286H82.7334H82.7382H82.7431H82.7479H82.7528H82.7576H82.7625H82.7674H82.7722H82.7771H82.782H82.7869H82.7918H82.7966H82.8015H82.8064H82.8114H82.8163H82.8212H82.8261H82.831H82.836H82.8409H82.8458H82.8508H82.8557H82.8607H82.8657H82.8706H82.8756H82.8806H82.8856H82.8905H82.8955H82.9005H82.9055H82.9105H82.9155H82.9206H82.9256H82.9306H82.9356H82.9407H82.9457H82.9507H82.9558H82.9608H82.9659H82.9709H82.976H82.9811H82.9862H82.9912H82.9963H83.0014H83.0065H83.0116H83.0167H83.0218H83.0269H83.032H83.0372H83.0423H83.0474H83.0525H83.0577H83.0628H83.068H83.0731H83.0783H83.0834H83.0886H83.0938H83.0989H83.1041H83.1093H83.1145H83.1197H83.1249H83.1301H83.1353H83.1405H83.1457H83.1509H83.1562H83.1614H83.1666H83.1719H83.1771H83.1824H83.1876H83.1929H83.1981H83.2034H83.2086H83.2139H83.2192H83.2245H83.2298H83.2351H83.2403H83.2456H83.2509H83.2563H83.2616H83.2669H83.2722H83.2775H83.2829H83.2882H83.2935H83.2989H83.3042H83.3096H83.3149H83.3203H83.3256H83.331H83.3364H83.3417H83.3471H83.3525H83.3579H83.3633H83.3687H83.3741H83.3795H83.3849H83.3903H83.3957H83.4011H83.4066H83.412H83.4174H83.4229H83.4283H83.4338H83.4392H83.4447H83.4501H83.4556H83.4611H83.4665H83.472H83.4775H83.483H83.4884H83.4939H83.4994H83.5049H83.5104H83.5159H83.5215H83.527H83.5325H83.538H83.5435H83.5491H83.5546H83.5601H83.5657H83.5712H83.5768H83.5823H83.5879H83.5935H83.599H83.6046H83.6102H83.6158H83.6213H83.6269H83.6325H83.6381H83.6437H83.6493H83.6549H83.6605H83.6661H83.6718H83.6774H83.683H83.6886H83.6943H83.6999H83.7055H83.7112H83.7168H83.7225H83.7281H83.7338H83.7395H83.7451H83.7508H83.7565H83.7622H83.7678H83.7735H83.7792H83.7849H83.7906H83.7963H83.802H83.8077H83.8134H83.8192H83.8249H83.8306H83.8363H83.8421H83.8478H83.8535H83.8593H83.865H83.8708H83.8765H83.8823H83.888H83.8938H83.8996H83.9053H83.9111H83.9169H83.9227H83.9285H83.9342H83.94H83.9458H83.9516H83.9574H83.9632H83.969H83.9749H83.9807H83.9865H83.9923H83.9982H84.004H84.0098H84.0157H84.0215H84.0273H84.0332H84.039H84.0449H84.0508H84.0566H84.0625H84.0684H84.0742H84.0801H84.086H84.0919H84.0978H84.1037H84.1095H84.1154H84.1213H84.1273H84.1332H84.1391H84.145H84.1509H84.1568H84.1627H84.1687H84.1746H84.1805H84.1865H84.1924H84.1984H84.2043H84.2103H84.2162H84.2222H84.2281H84.2341H84.2401H84.246H84.252H84.258H84.264H84.2699H84.2759H84.2819H84.2879H84.2939H84.2999H84.3059H84.3119H84.3179H84.3239H84.33H84.336H84.342H84.348H84.3541H84.3601H84.3661H84.3722H84.3782H84.3842H84.3903H84.3963H84.4024H84.4085H84.4145H84.4206H84.4266H84.4327H84.4388H84.4449H84.4509H84.457H84.4631H84.4692H84.4753H84.4814H84.4875H84.4936H84.4997H84.5058H84.5119H84.518H84.5241H84.5302H84.5364H84.5425H84.5486H84.5547H84.5609H84.567H84.5731H84.5793H84.5854H84.5916H84.5977H84.6039H84.61H84.6162H84.6224H84.6285H84.6347H84.6409H84.647H84.6532H84.6594H84.6656H84.6717H84.6779H84.6841H84.6903H84.6965H84.7027H84.7089H84.7151H84.7213H84.7275H84.7338H84.74H84.7462H84.7524H84.7586H84.7649H84.7711H84.7773H84.7836H84.7898H84.796H84.8023H84.8085H84.8148H84.821H84.8273H84.8335H84.8398H84.8461H84.8523H84.8586H84.8649H84.8711H84.8774H84.8837H84.89H84.8962H85.4676C87.4955 113.539 89.5275 113.421 91.5201 113.099C91.5113 113.195 91.5047 113.291 91.5018 113.386C91.3471 114.223 91.2891 115.073 91.3289 115.921Z" stroke="#323942" stroke-width="2"/>
<path d="M133.197 233.233V242.124C133.197 243.953 132.341 245.748 130.745 247.101C129.145 248.457 126.943 249.241 124.62 249.241H39.2723C36.9491 249.241 34.7476 248.457 33.1471 247.101C31.5515 245.748 30.6956 243.953 30.6956 242.124V233.47C47.0844 236.88 63.8736 238.717 80.7469 238.946L80.7944 239.006L81.2874 239.001C98.7971 238.797 116.218 236.862 133.197 233.233Z" stroke="#323942" stroke-width="2"/>
<path d="M111.23 36.3839L111.282 37.3289H112.228H124.659C126.982 37.3289 129.183 38.1125 130.784 39.4691C132.379 40.8214 133.235 42.6166 133.235 44.4457V58.6893L30.7341 58.6893V44.4133C30.7341 42.5842 31.5901 40.789 33.1857 39.4366C34.7862 38.0801 36.9876 37.2964 39.3109 37.2964H51.7032H52.6495L52.7016 36.3515C53.7958 16.5403 66.7047 1.24121 81.9656 1.24121C97.2261 1.24121 110.135 16.5397 111.23 36.3839ZM58.5708 36.3377L58.5082 37.3926L59.5651 37.3969L103.884 37.5741L104.948 37.5783L104.886 36.5158C104.371 27.6834 102.009 20.3715 98.0425 15.2431C94.0531 10.0856 88.4741 7.18774 81.7087 7.18774C74.9496 7.18774 69.3842 10.028 65.4039 15.1398C61.447 20.2214 59.0956 27.4907 58.5708 36.3377Z" stroke="#323942" stroke-width="2"/>
<mask id="path-4-inside-1" fill="white">
<path d="M134.504 64.6245L156.32 78.1635C157.909 87.0433 169.171 154.056 155.841 213.293C149.403 218.496 142.237 223.01 134.504 226.735C117.133 230.673 99.2557 232.783 81.2762 233.017C63.2968 232.783 45.4198 230.673 28.0488 226.735C20.3153 223.01 13.1495 218.496 6.71179 213.293C-6.61902 154.008 4.64322 86.9946 6.23296 78.1635L28.0488 64.6245L134.504 64.6245Z"/>
</mask>
<path d="M53.3122 87.4005L52.5659 86.7349L52.5633 86.7378L53.3122 87.4005ZM54.2053 86.9406L54.0627 85.9508L54.2053 86.9406ZM55.2275 87.1245L54.7366 87.9957L54.7716 88.0155L54.8081 88.0323L55.2275 87.1245ZM56.1469 87.368L56.2585 86.3743L56.2479 86.3731L56.2373 86.3721L56.1469 87.368ZM57.6983 87.7739L57.3053 88.6934L58.6713 89.2772L58.6982 87.7919L57.6983 87.7739ZM58.0957 86.8685L57.3843 86.1658L57.3843 86.1658L58.0957 86.8685ZM59.0774 86.3778V85.3778H58.9955L58.9147 85.3911L59.0774 86.3778ZM59.4796 86.3778L59.6025 85.3853L59.5413 85.3778H59.4796V86.3778ZM60.5522 86.7187L60.0728 87.5963L60.2969 87.7187H60.5522V86.7187ZM63.8083 86.881L63.6881 87.8738L63.7152 87.877L63.7425 87.8788L63.8083 86.881ZM63.8631 86.8846L63.9289 85.8868L63.9289 85.8868L63.8631 86.8846ZM68.9989 87.1245L69.0397 86.1254L69.0193 86.1245H68.9989V87.1245ZM70.6844 87.0271L70.8405 88.0148L70.8932 88.0065L70.9446 87.9927L70.6844 87.0271ZM87.0989 83.4719L86.959 82.4817L86.9474 82.4834L86.9359 82.4853L87.0989 83.4719ZM94.4347 83.0336L94.414 84.0334L94.4243 84.0336H94.4347V83.0336ZM108.46 86.6933L107.645 87.2731L107.645 87.2732L108.46 86.6933ZM108.512 86.7674L109.346 86.2144L109.337 86.2008L109.327 86.1875L108.512 86.7674ZM110.428 88.894L109.786 89.6608L109.877 89.7367L109.983 89.7894L110.428 88.894ZM111.156 89.933L112.144 90.0862L112.158 89.9916L112.155 89.896L111.156 89.933ZM109.24 95.144L108.384 94.6268L108.356 94.674L108.333 94.7241L109.24 95.144ZM108.34 97.2544L109.309 97.5025L109.313 97.4865L109.316 97.4704L108.34 97.2544ZM107.804 99.3485L108.772 99.5981L108.773 99.5966L107.804 99.3485ZM105.697 107.79L104.722 107.565L104.72 107.575L104.718 107.584L105.697 107.79ZM105.505 108.699L106.483 108.912L106.484 108.905L105.505 108.699ZM102.46 119.527L101.656 118.932L101.46 119.197V119.527H102.46ZM102.211 120.988L103.191 121.186L103.193 121.175L103.195 121.164L102.211 120.988ZM101.445 127.238L100.446 127.194L100.445 127.216V127.238H101.445ZM101.541 128.732L102.536 128.64L102.533 128.607L102.528 128.574L101.541 128.732ZM98.7633 138.001L98.3916 137.073L98.3815 137.077L98.3715 137.081L98.7633 138.001ZM96.848 137.514L97.6753 136.952L97.6481 136.912L97.6172 136.875L96.848 137.514ZM94.3197 131.021H93.3197V131.035L93.3201 131.049L94.3197 131.021ZM94.3197 129.397H95.3197V128.109L94.072 128.428L94.3197 129.397ZM92.0596 129.251L92.4346 128.324L92.2047 128.231L91.9581 128.256L92.0596 129.251ZM80.7208 131.378L80.454 130.414L80.1722 130.492L79.9768 130.71L80.7208 131.378ZM67.1601 135.355V136.355H67.2129L67.2654 136.349L67.1601 135.355ZM65.0149 138.326L65.9689 138.626L65.9729 138.613L65.0149 138.326ZM64.5553 139.722L63.6246 139.356L63.5553 139.532L63.5553 139.722L64.5553 139.722ZM64.4403 140.274L63.5172 139.889L63.4791 139.981L63.4597 140.078L64.4403 140.274ZM64.4339 140.306L63.4532 140.111L63.4532 140.111L64.4339 140.306ZM60.8586 145.712L60.8165 146.711L60.8375 146.712H60.8586V145.712ZM59.8004 145.477L60.1906 144.556L60.1906 144.556L59.8004 145.477ZM58.9433 144.901L59.6574 144.2L59.6356 144.178L59.6125 144.157L58.9433 144.901ZM58.6368 144.625L57.8714 145.268L57.9161 145.321L57.9677 145.368L58.6368 144.625ZM57.0471 143.65L56.7154 144.594L56.7539 144.607L56.7934 144.618L57.0471 143.65ZM54.2507 136.605L53.2507 136.599L53.2506 136.619L53.2513 136.639L54.2507 136.605ZM55.6872 129.543L56.6117 129.925L56.7078 129.691L56.6819 129.441L55.6872 129.543ZM55.8979 123.05L56.8839 123.217L56.8879 123.193L56.8908 123.169L55.8979 123.05ZM56.2235 117.384L57.2235 117.38L57.2215 116.938L56.8931 116.642L56.2235 117.384ZM55.2275 109.495L54.2425 109.322L54.2388 109.343L54.236 109.365L55.2275 109.495ZM55.4765 106.589H54.4765L54.4765 106.592L55.4765 106.589ZM55.3807 104.965L54.3808 104.972L54.3813 105.05L54.3939 105.127L55.3807 104.965ZM54.9594 101.378L55.9339 101.154L55.9295 101.134L55.9242 101.115L54.9594 101.378ZM54.4614 99.7544L53.5036 100.042L53.5079 100.056L53.5125 100.07L54.4614 99.7544ZM124.008 189.056L124.585 189.873L124.635 189.837L124.681 189.795L124.008 189.056ZM123.893 189.138L123.316 188.321L122.728 188.736L122.935 189.425L123.893 189.138ZM123.893 189.706L124.847 190.006L124.851 189.993L123.893 189.706ZM121.096 191.167V192.167H121.19L121.283 192.149L121.096 191.167ZM120.081 191.41L119.691 190.49L119.613 190.522L119.542 190.568L120.081 191.41ZM118.932 191.589L119.172 190.618L119.054 190.589H118.932V191.589ZM118.683 191.589V190.589H118.46L118.259 190.683L118.683 191.589ZM116.5 191.223L115.733 191.864L115.744 191.878L115.756 191.89L116.5 191.223ZM115.944 190.599L116.913 190.35L116.694 189.498L115.821 189.606L115.944 190.599ZM114.763 190.402L115.082 189.455V189.455L114.763 190.402ZM113.585 190.13L114.316 189.448L114.102 189.219L113.796 189.153L113.585 190.13ZM110.524 189.397L110.413 190.391L110.452 190.395L110.491 190.397L110.524 189.397ZM108.562 189.18L108.673 188.186L108.618 188.18H108.562V189.18ZM102.383 184.722L103.022 183.953L102.658 183.65L102.194 183.74L102.383 184.722ZM102.154 184.722L101.768 185.645L101.863 185.684L101.964 185.704L102.154 184.722ZM97.9781 181.475L98.7921 180.894L98.7652 180.857L98.735 180.822L97.9781 181.475ZM96.2542 179.754L96.9078 178.997L96.9016 178.992L96.8953 178.987L96.2542 179.754ZM93.3621 176.508L94.2022 175.965L94.1853 175.939L94.1669 175.914L93.3621 176.508ZM91.8489 174.56L92.5921 173.89L92.5855 173.883L92.5787 173.876L91.8489 174.56ZM83.9386 167.108L84.5785 166.34L84.576 166.338L83.9386 167.108ZM80.7208 164.446L81.3583 163.675L79.7208 162.321V164.446H80.7208ZM81.0272 177.758H82.0272V177.734L82.0261 177.71L81.0272 177.758ZM81.0272 178.537H80.0272V179.537H81.0272V178.537ZM83.9769 178.537V179.537H83.9846L83.9923 179.537L83.9769 178.537ZM90.2401 179.495L90.5787 178.554L90.5678 178.55L90.5567 178.546L90.2401 179.495ZM91.7149 180.209L92.2502 179.364L92.2459 179.362L91.7149 180.209ZM92.4236 180.582L92.0278 181.501L92.2011 181.575L92.3896 181.582L92.4236 180.582ZM93.1983 180.82L93.7444 179.983L93.7444 179.983L93.1983 180.82ZM93.6685 181.394L94.61 181.057L94.6081 181.052L93.6685 181.394ZM93.6631 182.125L94.5997 182.475L94.5997 182.475L93.6631 182.125ZM93.1705 182.725L92.6192 181.891L92.6017 181.902L92.5846 181.915L93.1705 182.725ZM92.6342 183.034L92.2255 182.121L91.7552 182.332L91.6538 182.837L92.6342 183.034ZM91.351 184.657L90.8828 183.773L90.8627 183.784L90.8431 183.796L91.351 184.657ZM90.6806 185.16L89.9921 184.435L89.9831 184.444L89.9743 184.452L90.6806 185.16ZM88.7652 185.371L89.2733 184.51L89.2487 184.495L89.2233 184.482L88.7652 185.371ZM88.3822 185.112L89.042 184.36L88.6466 184.013L88.1364 184.142L88.3822 185.112ZM81.8125 185.696L81.5471 186.66L81.6436 186.687L81.7434 186.694L81.8125 185.696ZM81.0303 185.625L81.1148 186.621L81.0303 185.625ZM80.2803 185.826L79.8491 184.924L79.7324 184.979L79.6337 185.063L80.2803 185.826ZM79.6865 189.202H78.6865V189.231L78.6881 189.259L79.6865 189.202ZM79.5333 191.8L78.5484 191.626L78.5467 191.636L78.5451 191.647L79.5333 191.8ZM74.2086 201.784L74.8931 202.513L74.8989 202.507L74.9046 202.502L74.2086 201.784ZM73.749 202.073L73.3779 201.144L73.3778 201.144L73.749 202.073ZM73.1935 202.189L73.1927 203.189L73.2122 203.189L73.2316 203.189L73.1935 202.189ZM72.1783 201.832L72.8254 201.07L72.7995 201.048L72.7721 201.028L72.1783 201.832ZM71.0674 200.209L72.0409 199.98L71.8133 199.012L70.8443 199.234L71.0674 200.209ZM70.0575 200.15L69.7193 201.091L69.7194 201.091L70.0575 200.15ZM69.3053 199.576L68.4597 200.11L68.4637 200.116L68.4678 200.122L69.3053 199.576ZM69.1138 198.829L70.111 198.904L70.1201 198.782L70.0996 198.661L69.1138 198.829ZM69.1138 198.732L70.0996 198.9L70.1916 198.359L69.7854 197.991L69.1138 198.732ZM69.1138 196.913L68.5284 196.103L68.4833 196.135L68.4421 196.173L69.1138 196.913ZM69.4968 192.904L70.496 192.862L70.495 192.838L70.4929 192.815L69.4968 192.904ZM69.8608 187.693L70.8351 187.918L71.161 186.508L69.7271 186.702L69.8608 187.693ZM67.2367 188.099L67.0696 187.113L67.0581 187.115L67.0467 187.117L67.2367 188.099ZM63.406 188.586V189.586H63.4371L63.4681 189.584L63.406 188.586ZM56.53 185.339L57.4037 184.852L57.3971 184.841L57.3903 184.829L56.53 185.339ZM56.361 184.495L55.3726 184.343L55.3726 184.343L56.361 184.495ZM56.779 183.715L57.471 184.437L57.4731 184.435L56.779 183.715ZM58.6943 183.131L58.5599 184.122L59.0882 184.194L59.4422 183.795L58.6943 183.131ZM59.4796 182.612L59.1466 181.669L59.1425 181.67L59.4796 182.612ZM60.6288 182.612L60.2958 183.554L60.4574 183.612H60.6288V182.612ZM66.0109 182.238L66.1445 183.229L66.1972 183.222L66.2489 183.209L66.0109 182.238ZM71.0483 180.615L71.4233 181.542L71.9699 181.321L72.041 180.735L71.0483 180.615ZM71.5271 169.381L72.5265 169.345L72.4516 167.255L70.8717 168.626L71.5271 169.381ZM68.7499 172.076L68.014 171.399L67.999 171.415L67.9848 171.432L68.7499 172.076ZM61.0885 177.888L60.6609 176.984L60.6474 176.99L60.6341 176.997L61.0885 177.888ZM56.8173 180.436L56.2479 179.614L56.2417 179.618L56.8173 180.436ZM41.6094 187.79V186.79H41.6015L41.5935 186.79L41.6094 187.79ZM39.0045 187.287L39.3975 186.367L39.3845 186.362L39.3714 186.357L39.0045 187.287ZM38.332 186.722L37.4601 187.212L37.4601 187.212L38.332 186.722ZM54.0585 88.0661C54.1035 88.0156 54.2002 87.9517 54.3479 87.9304L54.0627 85.9508C53.4984 86.0321 52.9563 86.2971 52.5659 86.7349L54.0585 88.0661ZM54.3479 87.9304C54.4952 87.9092 54.6367 87.9395 54.7366 87.9957L55.7184 86.2533C55.2169 85.9707 54.6272 85.8695 54.0627 85.9508L54.3479 87.9304ZM54.8081 88.0323C55.1999 88.2133 55.624 88.3247 56.0565 88.3639L56.2373 86.3721C56.0251 86.3529 55.8244 86.2987 55.6469 86.2167L54.8081 88.0323ZM56.0353 88.3618C56.4814 88.4119 56.9108 88.5248 57.3053 88.6934L58.0913 86.8543C57.5125 86.607 56.893 86.4455 56.2585 86.3743L56.0353 88.3618ZM58.6982 87.7919C58.6991 87.7383 58.7212 87.6583 58.8072 87.5713L57.3843 86.1658C56.9681 86.5871 56.7095 87.1464 56.6985 87.7558L58.6982 87.7919ZM58.8072 87.5713C58.8965 87.4808 59.0448 87.3966 59.24 87.3645L58.9147 85.3911C58.342 85.4855 57.7971 85.7478 57.3843 86.1658L58.8072 87.5713ZM59.0774 87.3778H59.4796V85.3778H59.0774V87.3778ZM59.3567 87.3702C59.6191 87.4027 59.8632 87.4818 60.0728 87.5963L61.0316 85.8411C60.5918 85.6009 60.1044 85.4475 59.6025 85.3853L59.3567 87.3702ZM60.5522 87.7187C61.3532 87.7187 62.412 87.7192 63.6881 87.8738L63.9285 85.8883C62.5231 85.7181 61.3601 85.7187 60.5522 85.7187V87.7187ZM63.7425 87.8788L63.7973 87.8825L63.9289 85.8868L63.874 85.8832L63.7425 87.8788ZM63.7973 87.8825C65.497 87.9945 67.4618 88.1245 68.9989 88.1245V86.1245C67.5417 86.1245 65.6499 86.0003 63.9289 85.8868L63.7973 87.8825ZM68.958 88.1237C69.588 88.1495 70.2196 88.113 70.8405 88.0148L70.5282 86.0394C70.0382 86.1168 69.5385 86.1458 69.0397 86.1254L68.958 88.1237ZM70.9446 87.9927C76.2985 86.5496 81.7467 85.3695 87.2619 84.4586L86.9359 82.4853C81.3557 83.407 75.8426 84.601 70.4241 86.0616L70.9446 87.9927ZM87.2387 84.4621C89.6088 84.1273 92.0114 83.9837 94.414 84.0334L94.4553 82.0338C91.9457 81.982 89.4358 82.1319 86.959 82.4817L87.2387 84.4621ZM94.4347 84.0336H97.9972V82.0336H94.4347V84.0336ZM97.9972 84.0336H100.717V82.0336H97.9972V84.0336ZM100.717 84.0336C103.167 84.0336 104.588 84.4814 105.519 85.0495C106.459 85.6225 107.006 86.3747 107.645 87.2731L109.275 86.1136C108.647 85.2315 107.892 84.1539 106.561 83.3421C105.222 82.5254 103.406 82.0336 100.717 82.0336V84.0336ZM107.645 87.2732L107.698 87.3472L109.327 86.1875L109.274 86.1135L107.645 87.2732ZM107.679 87.3203C108.253 88.1852 108.963 88.9723 109.786 89.6608L111.07 88.1272C110.388 87.5563 109.808 86.9118 109.346 86.2144L107.679 87.3203ZM109.983 89.7894C110.061 89.8283 110.107 89.8739 110.131 89.9077L111.769 88.7602C111.538 88.4307 111.225 88.1735 110.873 87.9986L109.983 89.7894ZM110.131 89.9077C110.153 89.9399 110.156 89.9611 110.156 89.9699L112.155 89.896C112.14 89.4824 112.001 89.0915 111.769 88.7602L110.131 89.9077ZM110.167 89.7797C109.906 91.4634 109.305 93.1029 108.384 94.6268L110.096 95.6612C111.147 93.9225 111.841 92.0368 112.144 90.0862L110.167 89.7797ZM108.333 94.7241C108.14 95.1407 107.925 95.6117 107.751 96.0141C107.664 96.2148 107.584 96.4047 107.52 96.5655C107.466 96.7035 107.397 96.8857 107.364 97.0384L109.316 97.4704C109.311 97.4932 109.322 97.4502 109.382 97.2975C109.433 97.1675 109.503 97.0014 109.585 96.8104C109.751 96.4296 109.958 95.9753 110.148 95.5639L108.333 94.7241ZM107.371 97.0063L106.835 99.1005L108.773 99.5966L109.309 97.5025L107.371 97.0063ZM106.835 99.099C106.109 101.919 105.377 104.725 104.722 107.565L106.671 108.015C107.319 105.205 108.043 102.428 108.772 99.5981L106.835 99.099ZM104.718 107.584L104.527 108.493L106.484 108.905L106.675 107.996L104.718 107.584ZM104.528 108.487C103.743 112.097 103.165 114.538 102.697 116.191C102.218 117.885 101.888 118.618 101.656 118.932L103.264 120.122C103.74 119.478 104.148 118.409 104.622 116.735C105.107 115.019 105.697 112.526 106.483 108.912L104.528 108.487ZM101.46 119.527C101.46 119.631 101.44 119.779 101.392 120.014C101.351 120.211 101.276 120.533 101.227 120.812L103.195 121.164C103.241 120.907 103.291 120.71 103.351 120.416C103.403 120.16 103.46 119.845 103.46 119.527H101.46ZM101.231 120.79C100.803 122.907 100.54 125.047 100.446 127.194L102.444 127.282C102.534 125.239 102.784 123.202 103.191 121.186L101.231 120.79ZM100.445 127.238C100.445 127.614 100.444 128.203 100.553 128.889L102.528 128.574C102.446 128.059 102.445 127.609 102.445 127.238H100.445ZM100.545 128.823C100.691 130.414 100.85 132.251 100.581 133.852C100.315 135.43 99.6771 136.558 98.3916 137.073L99.1351 138.929C101.336 138.048 102.23 136.108 102.553 134.184C102.873 132.283 102.678 130.183 102.536 128.64L100.545 128.823ZM98.3715 137.081C98.2447 137.135 98.0856 137.149 97.9378 137.111L97.445 139.05C98.0095 139.193 98.6175 139.15 99.1552 138.921L98.3715 137.081ZM97.9378 137.111C97.7898 137.074 97.7076 137 97.6753 136.952L96.0207 138.076C96.3593 138.575 96.8807 138.906 97.445 139.05L97.9378 137.111ZM97.6172 136.875C96.1681 135.131 95.3786 133.083 95.3193 130.992L93.3201 131.049C93.3929 133.616 94.3631 136.088 96.0788 138.153L97.6172 136.875ZM95.3197 131.021V129.397H93.3197V131.021H95.3197ZM94.072 128.428C93.5268 128.568 92.9393 128.528 92.4346 128.324L91.6847 130.178C92.5913 130.545 93.6155 130.609 94.5675 130.366L94.072 128.428ZM91.9581 128.256C88.0504 128.655 84.1973 129.378 80.454 130.414L80.9876 132.342C84.6214 131.335 88.3638 130.633 92.1611 130.246L91.9581 128.256ZM79.9768 130.71C79.5952 131.134 78.6935 131.629 77.3325 132.117C76.0244 132.586 74.4609 132.993 72.936 133.327C71.4157 133.661 69.9569 133.918 68.8671 134.093C68.3228 134.181 67.8721 134.247 67.5536 134.293C67.2258 134.339 67.0531 134.361 67.0548 134.361L67.2654 136.349C67.3767 136.338 70.2383 135.967 73.3647 135.281C74.9284 134.938 76.585 134.51 78.0075 134C79.377 133.509 80.7163 132.879 81.4647 132.046L79.9768 130.71ZM67.1601 134.355C66.7382 134.355 66.3274 134.447 65.9483 134.667C65.5764 134.883 65.2959 135.187 65.0748 135.52C64.6572 136.15 64.3582 137.034 64.057 138.039L65.9729 138.613C66.2845 137.573 66.5123 136.971 66.7412 136.626C66.8432 136.473 66.9159 136.418 66.9528 136.396C66.9825 136.379 67.0362 136.355 67.1601 136.355V134.355ZM64.061 138.026C63.8963 138.549 63.78 138.961 63.6246 139.356L65.4859 140.088C65.6752 139.606 65.8272 139.076 65.9688 138.626L64.061 138.026ZM64.5553 139.722C63.5553 139.722 63.5553 139.722 63.5553 139.721C63.5553 139.721 63.5553 139.721 63.5553 139.721C63.5553 139.721 63.5553 139.721 63.5553 139.72C63.5553 139.72 63.5553 139.719 63.5553 139.719C63.5553 139.718 63.5553 139.717 63.5553 139.716C63.5553 139.714 63.5553 139.713 63.5553 139.712C63.5554 139.709 63.5554 139.707 63.5554 139.707C63.5555 139.705 63.5555 139.706 63.5552 139.71C63.5548 139.718 63.5535 139.735 63.5504 139.757C63.5435 139.806 63.5316 139.855 63.5172 139.889L65.3635 140.658C65.464 140.417 65.5095 140.189 65.5314 140.032C65.5427 139.951 65.5486 139.881 65.5517 139.829C65.5533 139.802 65.5542 139.78 65.5546 139.762C65.5549 139.753 65.5551 139.745 65.5551 139.739C65.5552 139.735 65.5552 139.732 65.5552 139.729C65.5552 139.728 65.5553 139.727 65.5553 139.725C65.5553 139.725 65.5553 139.724 65.5553 139.724C65.5553 139.723 65.5553 139.723 65.5553 139.723C65.5553 139.723 65.5553 139.722 65.5553 139.722C65.5553 139.722 65.5553 139.722 64.5553 139.722ZM63.4597 140.078L63.4532 140.111L65.4145 140.502L65.421 140.47L63.4597 140.078ZM63.4532 140.111C63.2173 141.294 62.9688 142.507 62.5137 143.43C62.0754 144.32 61.5704 144.712 60.8586 144.712V146.712C62.6443 146.712 63.6973 145.553 64.3076 144.315C64.901 143.111 65.1915 141.621 65.4146 140.502L63.4532 140.111ZM60.9008 144.713C60.6489 144.702 60.4068 144.648 60.1906 144.556L59.4102 146.397C59.8535 146.585 60.3321 146.691 60.8165 146.711L60.9008 144.713ZM60.1906 144.556C59.9745 144.464 59.7948 144.341 59.6574 144.2L58.2292 145.601C58.5629 145.941 58.967 146.21 59.4103 146.397L60.1906 144.556ZM59.6125 144.157L59.306 143.881L57.9677 145.368L58.2741 145.644L59.6125 144.157ZM59.4023 143.981C58.8669 143.344 58.1223 142.899 57.3008 142.683L56.7934 144.618C57.2549 144.739 57.6274 144.978 57.8714 145.268L59.4023 143.981ZM57.3788 142.707C57.066 142.597 56.7256 142.29 56.3973 141.687C56.0757 141.098 55.8321 140.344 55.6542 139.564C55.4782 138.793 55.3764 138.04 55.3189 137.477C55.2902 137.196 55.2729 136.966 55.2628 136.807C55.2577 136.728 55.2545 136.666 55.2525 136.626C55.2516 136.606 55.2509 136.591 55.2505 136.582C55.2503 136.577 55.2502 136.574 55.2501 136.572C55.2501 136.571 55.2501 136.57 55.2501 136.57C55.2501 136.57 55.2501 136.57 55.2501 136.57C55.2501 136.57 55.2501 136.57 55.2501 136.57C55.2501 136.571 55.2501 136.571 54.2507 136.605C53.2513 136.639 53.2513 136.64 53.2513 136.64C53.2513 136.64 53.2513 136.64 53.2513 136.64C53.2513 136.641 53.2514 136.641 53.2514 136.642C53.2514 136.643 53.2515 136.645 53.2516 136.647C53.2517 136.651 53.2519 136.657 53.2522 136.664C53.2528 136.678 53.2536 136.697 53.2548 136.722C53.2573 136.772 53.2611 136.844 53.2668 136.934C53.2783 137.115 53.2976 137.371 53.3292 137.68C53.392 138.295 53.5045 139.133 53.7043 140.009C53.9023 140.877 54.1962 141.828 54.6413 142.645C55.0797 143.449 55.7354 144.249 56.7154 144.594L57.3788 142.707ZM55.2507 136.611C55.2648 134.338 55.7236 132.079 56.6117 129.925L54.7627 129.162C53.7786 131.549 53.2665 134.062 53.2507 136.599L55.2507 136.611ZM56.6819 129.441C56.4676 127.366 56.5353 125.278 56.8839 123.217L54.9119 122.883C54.5333 125.122 54.4596 127.392 54.6925 129.646L56.6819 129.441ZM56.8908 123.169C57.1211 121.245 57.2322 119.313 57.2235 117.38L55.2235 117.389C55.2318 119.24 55.1255 121.089 54.905 122.931L56.8908 123.169ZM56.8931 116.642C56.2876 116.096 55.9723 115.183 55.9054 113.875C55.8391 112.578 56.025 111.104 56.219 109.625L54.236 109.365C54.0469 110.807 53.8307 112.466 53.908 113.978C53.9848 115.478 54.359 117.05 55.5539 118.127L56.8931 116.642ZM56.2125 109.667C56.3911 108.648 56.4794 107.618 56.4765 106.586L54.4765 106.592C54.4791 107.505 54.4009 108.418 54.2425 109.322L56.2125 109.667ZM56.4765 106.589C56.4765 106.075 56.4782 105.479 56.3676 104.804L54.3939 105.127C54.4748 105.621 54.4765 106.064 54.4765 106.589H56.4765ZM56.3807 104.959C56.3719 103.68 56.2222 102.406 55.9339 101.154L53.9848 101.602C54.2405 102.713 54.373 103.842 54.3808 104.972L56.3807 104.959ZM55.9242 101.115C55.8034 100.671 55.6253 100.085 55.4102 99.4386L53.5125 100.07C53.7189 100.69 53.8855 101.24 53.9945 101.64L55.9242 101.115ZM55.4191 99.4668C54.6123 96.7803 53.9021 94.2642 53.6055 92.1823C53.4574 91.1436 53.4199 90.2606 53.5067 89.5474C53.5935 88.8335 53.7956 88.3632 54.0611 88.0632L52.5633 86.7378C51.9382 87.4442 51.6374 88.3518 51.5213 89.3059C51.4052 90.2608 51.4646 91.336 51.6255 92.4645C51.9465 94.717 52.7015 97.3713 53.5036 100.042L55.4191 99.4668ZM124.598 187.165L123.334 188.317L124.681 189.795L125.946 188.643L124.598 187.165ZM123.431 188.24L123.316 188.321L124.47 189.954L124.585 189.873L123.431 188.24ZM122.935 189.425C122.935 189.426 122.935 189.424 122.935 189.422C122.935 189.419 122.935 189.418 122.935 189.418L124.851 189.993C124.963 189.619 124.963 189.224 124.851 188.85L122.935 189.425ZM122.939 189.406C122.908 189.505 122.827 189.637 122.469 189.79C122.087 189.953 121.577 190.058 120.91 190.184L121.283 192.149C121.899 192.032 122.634 191.894 123.253 191.63C123.895 191.357 124.571 190.881 124.847 190.006L122.939 189.406ZM121.096 190.167C120.786 190.167 120.466 190.241 120.251 190.3C120.023 190.363 119.813 190.438 119.691 190.49L120.471 192.331C120.502 192.318 120.628 192.271 120.782 192.228C120.857 192.208 120.928 192.191 120.99 192.18C121.02 192.175 121.045 192.171 121.065 192.169C121.075 192.168 121.082 192.167 121.088 192.167C121.091 192.167 121.093 192.167 121.094 192.167C121.095 192.167 121.095 192.167 121.096 192.167C121.096 192.167 121.096 192.167 121.096 192.167V190.167ZM119.542 190.568C119.503 190.593 119.447 190.616 119.378 190.627L119.685 192.603C120.015 192.552 120.335 192.435 120.62 192.253L119.542 190.568ZM119.378 190.627C119.309 190.638 119.237 190.634 119.172 190.618L118.692 192.56C119.016 192.64 119.355 192.654 119.685 192.603L119.378 190.627ZM118.932 190.589H118.683V192.589H118.932V190.589ZM118.259 190.683C118.049 190.782 117.79 190.817 117.537 190.772L117.185 192.741C117.832 192.857 118.512 192.773 119.107 192.494L118.259 190.683ZM117.537 190.772C117.465 190.759 117.432 190.749 117.422 190.745C117.416 190.743 117.422 190.744 117.429 190.75C117.434 190.753 117.425 190.748 117.394 190.717C117.359 190.682 117.318 190.637 117.244 190.555L115.756 191.89C115.876 192.025 116.06 192.237 116.303 192.402C116.578 192.59 116.87 192.685 117.185 192.741L117.537 190.772ZM117.267 190.581C117.188 190.486 117.096 190.4 117.043 190.351C116.969 190.283 116.933 190.251 116.881 190.201C116.86 190.18 116.844 190.164 116.831 190.152C116.819 190.138 116.814 190.133 116.815 190.134C116.815 190.134 116.828 190.149 116.844 190.178C116.86 190.205 116.891 190.264 116.913 190.35L114.975 190.847C115.04 191.101 115.176 191.286 115.251 191.379C115.336 191.487 115.429 191.579 115.497 191.645C115.561 191.706 115.645 191.782 115.681 191.816C115.737 191.867 115.743 191.877 115.733 191.864L117.267 190.581ZM115.821 189.606C115.696 189.622 115.622 189.614 115.547 189.599C115.439 189.576 115.333 189.539 115.082 189.455L114.444 191.35C114.86 191.49 115.34 191.681 116.067 191.591L115.821 189.606ZM115.082 189.455C114.782 189.354 114.532 189.295 114.315 189.267C114.084 189.238 113.915 189.248 113.794 189.262C113.716 189.27 113.754 189.266 113.769 189.265C113.814 189.263 113.916 189.263 114.039 189.3C114.16 189.337 114.244 189.392 114.286 189.424C114.323 189.452 114.335 189.469 114.316 189.448L112.854 190.813C112.94 190.905 113.142 191.118 113.46 191.215C113.628 191.265 113.773 191.268 113.867 191.263C113.91 191.261 113.947 191.257 113.967 191.255C114.017 191.249 113.975 191.254 114.01 191.25C114.019 191.249 114.026 191.247 114.066 191.252C114.119 191.258 114.235 191.28 114.444 191.35L115.082 189.455ZM113.796 189.153C113.366 189.06 112.927 188.909 112.347 188.739C111.815 188.583 111.184 188.418 110.556 188.398L110.491 190.397C110.846 190.408 111.269 190.507 111.784 190.658C112.25 190.795 112.85 190.995 113.374 191.108L113.796 189.153ZM110.634 188.403L108.673 188.186L108.452 190.174L110.413 190.391L110.634 188.403ZM108.562 188.18C108.441 188.18 108.167 188.111 107.705 187.841C107.269 187.586 106.771 187.216 106.232 186.77C105.695 186.327 105.145 185.833 104.597 185.34C104.058 184.854 103.516 184.362 103.022 183.953L101.744 185.491C102.199 185.869 102.707 186.328 103.258 186.826C103.802 187.316 104.383 187.838 104.958 188.312C105.53 188.784 106.123 189.233 106.697 189.568C107.245 189.888 107.898 190.18 108.562 190.18V188.18ZM102.194 183.74C102.243 183.73 102.294 183.73 102.343 183.74L101.964 185.704C102.165 185.743 102.372 185.743 102.573 185.704L102.194 183.74ZM102.539 183.799C100.966 183.142 99.6716 182.127 98.7921 180.894L97.164 182.056C98.2795 183.619 99.8834 184.858 101.768 185.645L102.539 183.799ZM98.735 180.822C98.1773 180.176 97.5665 179.566 96.9078 178.997L95.6007 180.511C96.1874 181.018 96.7288 181.559 97.2211 182.129L98.735 180.822ZM96.8953 178.987C95.8231 178.091 94.917 177.073 94.2022 175.965L92.5219 177.05C93.3512 178.335 94.3939 179.504 95.6132 180.522L96.8953 178.987ZM94.1669 175.914C93.7077 175.291 93.1896 174.554 92.5921 173.89L91.1058 175.229C91.6192 175.799 92.0587 176.425 92.5572 177.101L94.1669 175.914ZM92.5787 173.876C90.0961 171.226 87.4242 168.709 84.5785 166.34L83.2987 167.877C86.0824 170.195 88.6941 172.655 91.1192 175.243L92.5787 173.876ZM84.576 166.338L81.3583 163.675L80.0833 165.216L83.3011 167.879L84.576 166.338ZM79.7208 164.446C79.7208 166.903 79.7208 171.37 80.0284 177.805L82.0261 177.71C81.7208 171.321 81.7208 166.891 81.7208 164.446H79.7208ZM80.0272 177.758V178.537H82.0272V177.758H80.0272ZM81.0272 179.537H83.9769V177.537H81.0272V179.537ZM83.9923 179.537C86.0235 179.505 88.0394 179.814 89.9234 180.443L90.5567 178.546C88.4546 177.844 86.2137 177.502 83.9614 177.537L83.9923 179.537ZM89.9014 180.436C90.3592 180.6 90.7894 180.809 91.1838 181.056L92.2459 179.362C91.7266 179.036 91.1669 178.765 90.5787 178.554L89.9014 180.436ZM91.1796 181.054C91.4483 181.224 91.7322 181.373 92.0278 181.501L92.8193 179.664C92.6181 179.577 92.4278 179.477 92.2502 179.364L91.1796 181.054ZM92.3896 181.582C92.4991 181.585 92.5907 181.618 92.6521 181.658L93.7444 179.983C93.3599 179.732 92.9102 179.598 92.4575 179.583L92.3896 181.582ZM92.6521 181.658C92.7126 181.698 92.7273 181.732 92.7289 181.736L94.6081 181.052C94.4438 180.6 94.1299 180.234 93.7444 179.983L92.6521 181.658ZM92.727 181.731C92.7306 181.741 92.7312 181.748 92.7312 181.753C92.7312 181.757 92.7304 181.764 92.7265 181.775L94.5997 182.475C94.7713 182.017 94.7752 181.518 94.61 181.057L92.727 181.731ZM92.7265 181.775C92.7188 181.795 92.6926 181.842 92.6192 181.891L93.7218 183.56C94.1123 183.301 94.4296 182.93 94.5997 182.475L92.7265 181.775ZM92.5846 181.915C92.4769 181.993 92.3566 182.062 92.2255 182.121L93.043 183.946C93.295 183.833 93.5345 183.696 93.7564 183.536L92.5846 181.915ZM91.6538 182.837C91.6198 183.006 91.5419 183.179 91.4131 183.342L92.9821 184.582C93.2957 184.185 93.5154 183.725 93.6147 183.23L91.6538 182.837ZM91.4131 183.342C91.2838 183.505 91.1057 183.655 90.8828 183.773L91.8191 185.541C92.2701 185.302 92.6691 184.978 92.9821 184.582L91.4131 183.342ZM90.8431 183.796C90.5345 183.977 90.2485 184.192 89.9921 184.435L91.3691 185.885C91.5117 185.75 91.6756 185.626 91.8588 185.518L90.8431 183.796ZM89.9743 184.452C89.9187 184.508 89.8118 184.569 89.6615 184.585L89.8805 186.573C90.4384 186.512 90.9801 186.274 91.3869 185.868L89.9743 184.452ZM89.6615 184.585C89.5114 184.602 89.3712 184.568 89.2733 184.51L88.2572 186.233C88.7455 186.521 89.3224 186.635 89.8805 186.573L89.6615 184.585ZM89.2233 184.482C89.1527 184.446 89.0922 184.404 89.042 184.36L87.7223 185.863C87.9001 186.019 88.0971 186.152 88.3071 186.26L89.2233 184.482ZM88.1364 184.142C86.1124 184.655 83.9907 184.844 81.8816 184.698L81.7434 186.694C84.0618 186.854 86.3961 186.647 88.6279 186.081L88.1364 184.142ZM82.0779 184.732C81.7106 184.631 81.3258 184.596 80.9459 184.628L81.1148 186.621C81.2623 186.609 81.4102 186.622 81.5471 186.66L82.0779 184.732ZM80.9459 184.628C80.566 184.66 80.1926 184.759 79.8491 184.924L80.7114 186.728C80.8297 186.672 80.9671 186.634 81.1148 186.621L80.9459 184.628ZM79.6337 185.063C79.2886 185.355 79.1011 185.747 78.9904 186.072C78.8754 186.41 78.809 186.778 78.7676 187.129C78.6852 187.827 78.6865 188.607 78.6865 189.202H80.6865C80.6865 188.581 80.6878 187.923 80.7538 187.363C80.7867 187.085 80.8316 186.87 80.8835 186.717C80.9399 186.552 80.975 186.548 80.9268 186.589L79.6337 185.063ZM78.6881 189.259C78.7333 190.05 78.6866 190.843 78.5484 191.626L80.5181 191.973C80.6829 191.038 80.7388 190.091 80.6849 189.145L78.6881 189.259ZM78.5451 191.647C78.0073 195.115 76.2675 198.395 73.5125 201.066L74.9046 202.502C77.9462 199.553 79.9117 195.886 80.5215 191.953L78.5451 191.647ZM73.524 201.055C73.4913 201.085 73.443 201.118 73.3779 201.144L74.1202 203.001C74.4036 202.888 74.6677 202.724 74.8931 202.513L73.524 201.055ZM73.3778 201.144C73.3126 201.17 73.2367 201.187 73.1554 201.19L73.2316 203.189C73.5352 203.177 73.8369 203.115 74.1203 203.001L73.3778 201.144ZM73.1942 201.189C73.03 201.189 72.8992 201.133 72.8254 201.07L71.5313 202.595C71.9957 202.989 72.5953 203.189 73.1927 203.189L73.1942 201.189ZM72.7721 201.028C72.371 200.732 72.1294 200.356 72.0409 199.98L70.094 200.438C70.302 201.322 70.8418 202.089 71.5845 202.637L72.7721 201.028ZM70.8443 199.234C70.6934 199.269 70.5326 199.258 70.3956 199.209L69.7194 201.091C70.2211 201.272 70.7716 201.303 71.2905 201.184L70.8443 199.234ZM70.3956 199.209C70.2586 199.16 70.1792 199.085 70.1428 199.029L68.4678 200.122C68.7672 200.581 69.2175 200.911 69.7193 201.091L70.3956 199.209ZM70.1509 199.042C70.1157 198.986 70.1083 198.94 70.111 198.904L68.1165 198.755C68.0806 199.237 68.2059 199.708 68.4597 200.11L70.1509 199.042ZM70.0996 198.661C70.113 198.74 70.113 198.821 70.0996 198.9L68.128 198.564C68.1035 198.707 68.1035 198.854 68.128 198.997L70.0996 198.661ZM69.7854 197.991C69.702 197.915 69.6905 197.851 69.6905 197.823H67.6905C67.6905 198.469 67.9816 199.055 68.4421 199.473L69.7854 197.991ZM69.6905 197.823C69.6905 197.794 69.702 197.73 69.7854 197.654L68.4421 196.173C67.9815 196.59 67.6905 197.176 67.6905 197.823H69.6905ZM69.6992 197.724C69.9551 197.539 70.1014 197.295 70.186 197.116C70.2749 196.926 70.3338 196.726 70.3754 196.541C70.4586 196.172 70.4993 195.744 70.5196 195.329C70.5604 194.492 70.5245 193.54 70.496 192.862L68.4977 192.946C68.5266 193.631 68.5578 194.498 68.522 195.231C68.5039 195.601 68.4704 195.897 68.4243 196.101C68.4013 196.204 68.3818 196.252 68.3762 196.264C68.3661 196.286 68.4017 196.194 68.5284 196.103L69.6992 197.724ZM70.4929 192.815C70.3473 191.178 70.4621 189.531 70.8351 187.918L68.8865 187.467C68.4663 189.285 68.3363 191.144 68.5008 192.992L70.4929 192.815ZM69.7271 186.702C68.869 186.817 67.9375 186.966 67.0696 187.113L67.4039 189.085C68.2598 188.939 69.167 188.795 69.9944 188.684L69.7271 186.702ZM67.0467 187.117C65.8287 187.353 64.5908 187.51 63.344 187.588L63.4681 189.584C64.8004 189.501 66.1237 189.333 67.4268 189.08L67.0467 187.117ZM63.406 187.586C63.2432 187.586 62.8251 187.513 62.1893 187.323C61.5879 187.144 60.881 186.887 60.1857 186.586C59.4877 186.284 58.8249 185.947 58.3019 185.613C57.7399 185.254 57.4758 184.982 57.4037 184.852L55.6563 185.825C55.9863 186.418 56.6224 186.913 57.2246 187.298C57.8658 187.708 58.6312 188.093 59.3912 188.422C60.1539 188.752 60.935 189.036 61.6175 189.24C62.2655 189.433 62.9272 189.586 63.406 189.586V187.586ZM57.3903 184.829C57.3492 184.76 57.3415 184.698 57.3494 184.646L55.3726 184.343C55.2918 184.87 55.4018 185.396 55.6696 185.849L57.3903 184.829ZM57.3494 184.646C57.3578 184.592 57.3885 184.516 57.471 184.437L56.0869 182.994C55.7134 183.352 55.453 183.819 55.3726 184.343L57.3494 184.646ZM57.4731 184.435C57.5864 184.326 57.7444 184.23 57.9397 184.171L57.356 182.258C56.8814 182.403 56.4415 182.652 56.0848 182.996L57.4731 184.435ZM57.9397 184.171C58.1348 184.111 58.3494 184.093 58.5599 184.122L58.8287 182.14C58.3362 182.073 57.8307 182.113 57.356 182.258L57.9397 184.171ZM59.4422 183.795C59.525 183.702 59.6504 183.613 59.8166 183.553L59.1425 181.67C58.6863 181.833 58.2699 182.103 57.9464 182.467L59.4422 183.795ZM59.8126 183.554C59.8854 183.529 59.9679 183.514 60.0542 183.514V181.514C59.746 181.514 59.4379 181.566 59.1466 181.669L59.8126 183.554ZM60.0542 183.514C60.1405 183.514 60.223 183.529 60.2958 183.554L60.9618 181.669C60.6704 181.566 60.3624 181.514 60.0542 181.514V183.514ZM60.6288 183.612C62.371 183.612 65.2713 183.347 66.1445 183.229L65.8773 181.247C65.065 181.357 62.2576 181.612 60.6288 181.612V183.612ZM66.2489 183.209C68.0235 182.775 69.7541 182.217 71.4233 181.542L70.6733 179.688C69.0946 180.326 67.4557 180.855 65.773 181.267L66.2489 183.209ZM72.041 180.735C72.5004 176.952 72.6626 173.147 72.5265 169.345L70.5278 169.417C70.6601 173.114 70.5024 176.815 70.0556 180.494L72.041 180.735ZM70.8717 168.626C69.8599 169.504 68.9058 170.429 68.014 171.399L69.4858 172.753C70.326 171.84 71.2262 170.966 72.1825 170.136L70.8717 168.626ZM67.9848 171.432C66.0688 173.708 63.5702 175.608 60.6609 176.984L61.516 178.792C64.6662 177.302 67.401 175.231 69.5149 172.72L67.9848 171.432ZM60.6341 176.997C59.1014 177.779 57.6355 178.653 56.2479 179.614L57.3866 181.258C58.6992 180.349 60.0881 179.52 61.5429 178.778L60.6341 176.997ZM56.2417 179.618C54.0323 181.174 51.4585 182.979 48.8566 184.398C46.2305 185.83 43.714 186.79 41.6094 186.79V188.79C44.2357 188.79 47.1205 187.623 49.8143 186.154C52.5323 184.671 55.1969 182.8 57.3928 181.254L56.2417 179.618ZM41.5935 186.79C40.826 186.802 40.0715 186.655 39.3975 186.367L38.6116 188.206C39.5517 188.608 40.5855 188.807 41.6253 188.79L41.5935 186.79ZM39.3714 186.357C39.2653 186.315 39.2184 186.258 39.2038 186.232L37.4601 187.212C37.7252 187.683 38.1539 188.026 38.6377 188.217L39.3714 186.357ZM39.2038 186.232C39.1969 186.22 39.1962 186.214 39.1962 186.213C39.1961 186.213 39.1961 186.212 39.1962 186.212C39.1962 186.212 39.1963 186.21 39.197 186.208L37.2797 185.639C37.1214 186.172 37.1914 186.733 37.4601 187.212L39.2038 186.232ZM156.32 78.1635L158.288 77.811L158.131 76.934L157.374 76.4641L156.32 78.1635ZM134.504 64.6245L135.558 62.9252L135.074 62.6245H134.504V64.6245ZM28.0488 64.6245V62.6245H27.4786L26.9941 62.9252L28.0488 64.6245ZM6.23296 78.1635L5.17834 76.4641L4.42225 76.9334L4.26459 77.8091L6.23296 78.1635ZM6.71179 213.293L4.76051 213.732L4.91324 214.411L5.45471 214.849L6.71179 213.293ZM28.0488 226.735L27.1809 228.537L27.3853 228.635L27.6066 228.685L28.0488 226.735ZM81.2762 233.017L81.2501 235.017L81.2762 235.018L81.3023 235.017L81.2762 233.017ZM134.504 226.735L134.946 228.685L135.167 228.635L135.372 228.537L134.504 226.735ZM155.841 213.293L157.098 214.849L157.639 214.411L157.792 213.732L155.841 213.293ZM157.374 76.4641L135.558 62.9252L133.449 66.3239L155.265 79.8628L157.374 76.4641ZM134.504 62.6245L28.0488 62.6245V66.6245L134.504 66.6245V62.6245ZM26.9941 62.9252L5.17834 76.4641L7.28758 79.8628L29.1034 66.3239L26.9941 62.9252ZM4.26459 77.8091C2.67024 86.6659 -8.66526 154.024 4.76051 213.732L8.66307 212.855C-4.57278 153.991 6.61619 87.3233 8.20132 78.5178L4.26459 77.8091ZM5.45471 214.849C12.0166 220.152 19.3137 224.748 27.1809 228.537L28.9166 224.933C21.3168 221.273 14.2824 216.84 7.96887 211.738L5.45471 214.849ZM27.6066 228.685C45.1155 232.654 63.132 234.781 81.2501 235.017L81.3023 231.018C63.4616 230.785 45.7241 228.691 28.4909 224.784L27.6066 228.685ZM81.3023 235.017C99.4205 234.781 117.437 232.654 134.946 228.685L134.062 224.784C116.828 228.691 99.0909 230.785 81.2501 231.018L81.3023 235.017ZM135.372 228.537C143.239 224.748 150.536 220.152 157.098 214.849L154.584 211.738C148.27 216.84 141.236 221.273 133.636 224.933L135.372 228.537ZM157.792 213.732C171.218 154.073 159.882 86.7139 158.288 77.811L154.351 78.5159C155.936 87.3728 167.125 154.04 153.889 212.854L157.792 213.732Z" fill="#323942" mask="url(#path-4-inside-1)"/>
<path d="M63.617 94.9429C63.5214 94.8144 63.4279 94.6851 63.3365 94.5547C63.3932 94.5869 63.4498 94.6186 63.5065 94.6499C64.7892 95.3586 66.1897 95.9171 67.409 95.9171H68.0872C73.8816 96.0474 79.6669 95.4381 85.2496 94.1091C86.0549 94.0605 88.2019 93.7736 90.3663 93.466C91.9604 93.2394 93.6126 92.9942 94.8525 92.8051C94.712 93.012 94.5836 93.226 94.4681 93.4465L94.4503 93.4804L94.4352 93.5156C93.2245 96.3315 92.448 99.2717 92.1272 102.262C92.0013 102.744 91.9857 103.242 91.9744 103.601C91.971 103.711 91.968 103.808 91.9623 103.888C91.9531 104.016 91.9391 104.143 91.9223 104.281C91.8174 104.248 91.7093 104.215 91.597 104.181C90.3049 103.693 88.9335 103.381 87.5326 103.255L87.4881 103.251H87.4435H86.8195C85.581 103.138 84.3139 103.138 83.1187 103.138H83.102C80.8508 103.11 78.6068 103.377 76.4492 103.932L76.4276 103.938L76.4063 103.944L74.2803 104.594L74.2517 104.603L74.2236 104.613C72.0741 105.413 69.7936 105.939 67.4568 106.173C67.327 106.173 67.2256 106.168 67.1474 106.162C67.143 106.152 67.1384 106.141 67.1336 106.13C67.087 106.027 67.0682 105.834 67.0682 105.258V105.206L67.0628 105.154C66.8429 103.055 66.5827 100.953 66.0911 99.1774C65.6224 97.4846 64.8964 95.9053 63.617 94.9429ZM66.941 106.133C66.9411 106.133 66.942 106.133 66.9438 106.134C66.9419 106.133 66.941 106.133 66.941 106.133Z" stroke="#323942" stroke-width="2"/>
</g>
<defs>
<clipPath id="clip0">
<rect width="162" height="250" fill="white" transform="translate(0.276123 0.241211)"/>
</clipPath>
</defs>
</svg>
