<svg width="411" height="380" viewBox="0 0 411 380" fill="none" xmlns="http://www.w3.org/2000/svg">
<path d="M247.724 214.434C329.934 214.721 375.363 187.859 375.457 135.855C375.457 96.6542 306.969 62.5467 223.161 71.7281L217.521 72.3737C246.752 64.0172 267.65 52.2535 271.503 37.5489C277.519 14.0933 228.8 1.86334 167.612 1.07431C116.387 0.46461 76.0964 23.5616 77.6629 45.7978C79.6054 73.5931 105.077 86.5044 149.723 84.1015C87.9393 98.842 47.9619 122.333 57.1104 151.707C65.3189 178.103 104.106 195.821 156.647 205.504C68.2326 206.688 1.24863 242.875 1.24866 283.833C1.2487 351.976 70.9272 384.255 195.778 377.082C303.084 371.02 393.159 347.386 407.57 303.666C421.293 262.493 349.328 230.932 247.724 214.434ZM146.903 20.9435C120.867 24.0278 100.503 31.416 87.3753 39.3063C93.2967 28.2599 116.512 14.3802 151.226 11.2241C156.521 10.722 161.973 10.5426 167.393 10.5785C215.641 11.1882 245.875 18.684 257.937 26.9688C239.734 21.7325 208.905 18.3253 165.513 19.5447C159.341 19.7599 153.075 20.1903 146.903 20.9435ZM77.9763 131.192C96.7744 114.802 145.462 96.977 224.414 88.3694C233.28 87.3652 242.241 86.899 250.982 86.899C308.16 86.899 347.667 107.629 358.664 126.028C336.513 114.228 302.269 104.509 259.316 103.217C249.165 102.895 238.794 103.217 228.487 103.755C157.273 108.382 107.176 119.213 77.945 131.192H77.9763ZM188.979 245.96C175.821 245.135 162.599 244.92 149.629 245.278C94.7694 246.749 51.095 258.261 22.7725 272.285C36.8085 250.371 87.3441 225.66 160.312 225.66C171.497 225.66 182.901 226.27 194.243 227.453C294.97 237.926 357.16 259.337 381.096 278.955C343.751 264.538 279.806 251.519 188.948 245.78L188.979 245.96Z" stroke="#484759" stroke-width="2"/>
</svg>
