<svg width="28" height="28" viewBox="0 0 28 28" fill="none" xmlns="http://www.w3.org/2000/svg">
<path d="M18.2965 0H9.7016C1.85834 0 -0.000976562 1.85932 -0.000976562 9.70257V18.2974C-0.000976562 26.1407 1.85834 28 9.7016 28H18.2965C26.1397 28 27.999 26.1407 27.999 18.2974V9.70257C27.999 1.85932 26.1213 0 18.2965 0ZM22.6031 19.9739H20.5705C19.8005 19.9739 19.5634 19.3631 18.1783 17.9597C16.9752 16.7934 16.4424 16.6385 16.1458 16.6385C15.7267 16.6385 15.6077 16.7566 15.6077 17.3315V19.168C15.6077 19.6606 15.4528 19.9564 14.1491 19.9564C11.9931 19.9564 9.60097 18.6527 7.92365 16.2237C5.39411 12.6644 4.702 9.99831 4.702 9.44708C4.702 9.15046 4.82012 8.8731 5.38973 8.8731H7.42667C7.94203 8.8731 8.13802 9.11022 8.33839 9.66145C9.34548 12.569 11.0228 15.116 11.7149 15.116C11.9704 15.116 12.0885 14.9979 12.0885 14.3461V11.3431C12.0106 9.95806 11.2818 9.83907 11.2818 9.34733C11.2818 9.11022 11.4778 8.8731 11.7919 8.8731H14.9952C15.4283 8.8731 15.5875 9.11022 15.5875 9.62032V13.6714C15.5875 14.1089 15.7835 14.2638 15.9017 14.2638C16.1571 14.2638 16.3759 14.1089 16.8492 13.6347C18.3122 11.9941 19.3604 9.46458 19.3604 9.46458C19.4969 9.16796 19.734 8.8906 20.2494 8.8906H22.2863C22.8971 8.8906 23.0336 9.20471 22.8971 9.6422C22.6416 10.8269 20.1488 14.3452 20.1488 14.3452C19.9344 14.7004 19.8522 14.8553 20.1488 15.2516C20.3675 15.5483 21.0789 16.1634 21.5522 16.7146C22.4228 17.7033 23.0922 18.5328 23.2707 19.1068C23.471 19.6764 23.1753 19.973 22.6004 19.973L22.6031 19.9739Z" fill="white"/>
</svg>
