<svg width="32" height="32" viewBox="0 0 32 32" fill="none" xmlns="http://www.w3.org/2000/svg">
<path d="M4.4638 27.7568C12.2377 22.7855 14.8427 10.9456 9.64851 3.02359C9.47071 2.75229 9.07066 2.75389 8.89604 3.02679C6.04175 7.49848 5.34802 13.8086 7.23077 18.8708C7.3419 19.1677 7.126 19.4852 6.81168 19.4852H4.60032C4.41776 19.4852 4.25107 19.3751 4.18281 19.206C1.83175 13.3442 3.08586 5.85311 7.05456 1.15799C7.14029 1.05745 7.2657 1 7.39746 1H11.136C11.2661 1 11.39 1.05586 11.4757 1.15321C17.9272 8.52145 16.3334 21.295 8.63411 27.0737C8.28645 27.3354 8.46583 27.8908 8.9008 27.8908H23.1532C23.4024 27.8908 23.6025 27.6881 23.6025 27.4392V24.7788C23.6025 24.5283 23.4008 24.3272 23.1532 24.3272H15.3237C14.9507 24.3272 14.7396 23.8963 14.9682 23.5995C19.7338 17.4233 19.6623 7.81925 14.957 1.73252C14.7284 1.43089 14.938 1 15.3126 1H17.3256C17.4573 1 17.5827 1.05745 17.6685 1.15799C21.9674 6.22974 22.9929 14.3927 19.9957 20.4986C19.8465 20.8019 20.0608 21.1561 20.3973 21.1561H23.1532C23.4024 21.1561 23.6025 20.9535 23.6025 20.7045V18.3394C23.6025 18.0888 23.8041 17.8877 24.0517 17.8877H26.3043C26.5536 17.8877 26.7536 18.0904 26.7536 18.3394V20.7045C26.7536 20.9551 26.9552 21.1561 27.2029 21.1561H29.5507C29.8 21.1561 30 21.3588 30 21.6078V23.8724C30 24.1229 29.7984 24.324 29.5507 24.324H27.2029C26.9536 24.324 26.7536 24.5267 26.7536 24.7756V30.6102C26.7536 30.8608 26.552 31.0619 26.3043 31.0619H4.70351C4.45427 31.0619 4.25425 30.8592 4.25425 30.6102V28.1382C4.25425 27.9834 4.33521 27.8397 4.46538 27.7568H4.4638Z" fill="white"/>
</svg>
